<?xml version="1.0" encoding="UTF-8"?>
<svg xmlns="http://www.w3.org/2000/svg" xmlns:xlink="http://www.w3.org/1999/xlink" viewBox="0 0 50 50" width="50px" height="50px">
<g id="surface181738757">
<rect x="0" y="0" width="50" height="50" style="fill:rgb(23.529412%,24.705882%,27.450982%);fill-opacity:1;stroke:none;"/>
<path style=" stroke:none;fill-rule:nonzero;fill:rgb(50.196081%,50.196081%,50.196081%);fill-opacity:1;" d="M 25 5.640625 C 22.605469 5.640625 20.179688 6.894531 18.925781 9.347656 C 16.28125 14.484375 13.476562 20.003906 11.257812 24.460938 C 10.148438 26.691406 9.1875 28.65625 8.464844 30.179688 C 7.742188 31.703125 7.277344 32.714844 7.089844 33.316406 L 7.085938 33.320312 C 6.835938 34.140625 6.566406 35.101562 6.566406 36.1875 C 6.566406 40.691406 10.242188 44.359375 14.757812 44.359375 C 19.75 44.359375 23.273438 40.367188 24.921875 38.472656 L 25 38.574219 L 25.078125 38.472656 C 26.726562 40.367188 30.25 44.359375 35.242188 44.359375 C 39.757812 44.359375 43.433594 40.691406 43.433594 36.1875 C 43.433594 35.101562 43.164062 34.140625 42.914062 33.320312 L 42.910156 33.316406 C 42.722656 32.714844 42.257812 31.703125 41.535156 30.179688 C 40.8125 28.65625 39.851562 26.691406 38.742188 24.460938 C 36.523438 20.003906 33.71875 14.484375 31.074219 9.347656 L 31.070312 9.347656 C 29.820312 6.894531 27.394531 5.640625 25 5.640625 Z M 25 7.398438 C 26.792969 7.398438 28.554688 8.292969 29.503906 10.148438 L 29.503906 10.152344 L 29.507812 10.152344 C 32.148438 15.285156 34.957031 20.796875 37.167969 25.242188 C 38.273438 27.46875 39.234375 29.425781 39.945312 30.929688 C 40.660156 32.433594 41.140625 33.558594 41.230469 33.839844 C 41.46875 34.621094 41.675781 35.402344 41.675781 36.1875 C 41.675781 39.738281 38.808594 42.601562 35.242188 42.601562 C 31.214844 42.601562 27.808594 38.949219 26.152344 37.097656 L 27.082031 35.90625 C 28.582031 33.992188 31.160156 30.359375 31.160156 26.722656 C 31.160156 23.351562 28.386719 20.601562 25 20.601562 C 21.613281 20.601562 18.839844 23.351562 18.839844 26.722656 C 18.839844 30.367188 21.417969 33.996094 22.917969 35.910156 L 23.847656 37.101562 C 22.191406 38.953125 18.78125 42.601562 14.757812 42.601562 C 11.191406 42.601562 8.324219 39.738281 8.324219 36.1875 C 8.324219 35.402344 8.53125 34.621094 8.769531 33.839844 C 8.859375 33.558594 9.339844 32.433594 10.054688 30.929688 C 10.765625 29.425781 11.726562 27.46875 12.832031 25.242188 C 15.042969 20.796875 17.851562 15.285156 20.492188 10.152344 L 20.496094 10.152344 L 20.496094 10.148438 C 21.441406 8.292969 23.207031 7.398438 25 7.398438 Z M 25 22.359375 C 27.4375 22.359375 29.398438 24.3125 29.398438 26.722656 C 29.398438 29.460938 27.105469 33.023438 25.695312 34.824219 L 25 35.714844 L 24.300781 34.824219 C 22.894531 33.027344 20.601562 29.472656 20.601562 26.722656 C 20.601562 24.3125 22.5625 22.359375 25 22.359375 Z M 25 22.359375 "/>
</g>
</svg>
